<svg width="3002" height="3364" viewBox="0 0 3002 3364" fill="none" xmlns="http://www.w3.org/2000/svg">
<path d="M1 60.9483C376.41 19.3245 790.945 38.5683 983.5 57.6869C1065 64.6869 1266.2 111.887 1419 244.687C1610 410.687 1722 445.187 1818 445.187C1914 445.187 1943.28 378.941 1962 334.687C1989.5 269.687 2080 121.687 2245.5 77.1872C2359.22 43.3984 2640.76 -7.58615 3001 2.23417M1 243.089C127.121 272.456 306.015 313.882 459.546 365.374C642.954 426.887 728.428 586.189 1017.48 624.101C1306.53 662.013 1564.79 667.668 1526.78 848.553C1488.77 1029.44 1729.46 995.307 1805.4 968.144C1881.34 940.981 2120.21 832.587 2200.71 711.827C2281.21 591.067 2404.02 399.129 2764.16 415.959C2852.49 420.087 2932.08 418.835 3001 414.435M1 416.983C59.5169 485.063 167.555 571.253 332.5 613C615 684.5 849.5 764 849.5 839.5C849.5 915 407.5 774 252.5 774C169.672 774 89.6988 849.673 1 920.677M1 1216.11C68.1935 1192.67 141.704 1157.8 212 1107C444.5 939 690 1006.5 757.5 1181.5C825 1356.5 1019 1480 1186.5 1480C1354 1480 1542.5 1390.5 1655 1333C1767.5 1275.5 1928 1226.5 2157 1226.5C2478.24 1226.5 2749.71 1427.4 3001 1450.51M1 1353.12C42.6344 1338.42 87.5329 1333.94 132 1345.5C343.5 1400.5 366.5 1515 571.5 1534.5C680.518 1544.87 1109.5 1628.5 1097.5 1698.5C1085.5 1768.5 797 1785 553.5 1793.5C401.451 1798.81 173.929 1862.02 1 1946.49M1 2460.4C61.4766 2425.3 122.455 2383.16 172 2334.5C340.5 2169 688.214 1924.38 1413.5 1893.5C1942 1871 2040 1791.5 2040 1747C2037.17 1729.5 2000.2 1680.4 1875 1624C1718.5 1553.5 1722.5 1530 1722.5 1515C1722.5 1500 1788 1405 2222.5 1453C2626.87 1497.67 2737.99 1646.28 3001 1681.58M1 2729.48C166.427 2677.03 366.295 2589.33 518.5 2456C825 2187.5 1146.5 2225.5 1230.5 2275C1314.5 2324.5 1295.5 2440.5 1212.5 2578.5C1129.5 2716.5 1025.5 2818 553 2924.5C185.189 3007.4 81.1834 3033.35 1 3083.7M1 3312.6C205.173 3282.38 463.145 3225.39 677.5 3129C1080 2948 1478.5 2821 1500.5 2984.5C1522.5 3148 1342 3382.5 1784.5 3362C2081.25 3348.25 2538.32 3286.38 3001 3247.12M3001 2999.03C1964.91 2979.89 1434.23 2622.52 1508 2423.5C1582.5 2222.5 2206.5 2111.5 2330 2074C2453.5 2036.5 2416.5 1881 2467 1798C2517.5 1715 2719.5 1736 2825 1771C2884.78 1790.83 2952.27 1841.27 3001 1884.04M3001 2734.68C2887.45 2753.65 2662.95 2770.54 2415.5 2726.5C2061.5 2663.5 1948.44 2609.63 1958.5 2534C1975 2410 2311.5 2466 2407.5 2337.5C2500.51 2213 2581.29 2097.9 3001 2099.5M3001 1238.76C2861.57 1218.75 2772.56 1149.84 2681.5 1081.95C2571.5 999.953 2258 1002.95 2340 873.953C2403.99 773.293 2797.91 771.006 3001 783.018" stroke="#0D1730"/>
</svg>
