<svg fill="#173a34" id="Capa_1" enable-background="new 0 0 512 512" height="512" viewBox="0 0 512 512" width="512" xmlns="http://www.w3.org/2000/svg"><g><path d="m256 0c-140.7 0-256 115.3-256 256s115.3 256 256 256 256-115.3 256-256-115.3-256-256-256zm-167.999 354.399c-17.1-28.799-27.001-62.399-27.001-98.399 0-107.1 86.4-194.7 194.399-195 36.301 0 69.901 9.899 99.001 26.999 8.699 5.101 10.499 16.501 3.6 23.701-45.9 45.899-200.401 200.4-246.3 246.299-7.2 6.901-18.6 5.101-23.699-3.6zm168.6 96.601c-36.301 0-69.901-9.901-99.001-27.001-8.699-5.099-10.499-16.8-3.3-23.699l246-246c6.899-7.2 18.6-5.4 23.699 3.3 17.1 28.8 27.001 62.4 27.001 98.4 0 107.699-87.001 194.7-194.399 195z"/></g></svg>