<svg id="Layer_1" data-name="Layer 1" xmlns="http://www.w3.org/2000/svg" xmlns:xlink="http://www.w3.org/1999/xlink" viewBox="0 0 1691 846"><defs><style>.cls-1{fill:url(#linear-gradient);}.cls-2{fill:#95b0f9;}.cls-3{fill:#f2afd2;}.cls-4{fill:#7db3fc;}.cls-5{fill:url(#linear-gradient-2);}.cls-6{fill:#d6d6d6;}.cls-7{fill:#fff;}.cls-8{fill:#aaa;}</style><linearGradient id="linear-gradient" x1="-223.34" y1="741.68" x2="1419.93" y2="741.68" gradientTransform="translate(282.6 -338.84) rotate(3.3)" gradientUnits="userSpaceOnUse"><stop offset="0.04" stop-color="#7dafff"/><stop offset="0.21" stop-color="#b0b0f4"/><stop offset="0.39" stop-color="#ffa9c2"/><stop offset="0.58" stop-color="#ffea94"/><stop offset="0.75" stop-color="#7def8f"/><stop offset="0.85" stop-color="#7be4d5"/><stop offset="1" stop-color="#7dafff"/></linearGradient><linearGradient id="linear-gradient-2" x1="-223.32" y1="741.92" x2="1419.94" y2="741.92" gradientTransform="translate(282.6 -338.84) rotate(3.3)" gradientUnits="userSpaceOnUse"><stop offset="0.04" stop-color="#7dafff"/><stop offset="0.21" stop-color="#b0b0f4"/><stop offset="0.39" stop-color="#ffa9c2"/><stop offset="0.58" stop-color="#ffea94"/><stop offset="0.75" stop-color="#7def8f"/><stop offset="0.85" stop-color="#7be4d5"/><stop offset="1" stop-color="#7db3fc"/></linearGradient></defs><path class="cls-1" d="M1672.7,102.9a24.89,24.89,0,0,0-17-9L1107.07,42.1l-.93-.08h0a25,25,0,0,0-26.38,22.67l-15.48,163.88-418.61.61L627.48,82.12a25,25,0,0,0-23.41-21.94h0a24.6,24.6,0,0,0-4.54.15L52.58,128a25.09,25.09,0,0,0-21.8,27.95l67.64,547a25,25,0,0,0,23.42,21.94,24.52,24.52,0,0,0,4.53-.15l425.54-52.62.2,133.46a25.08,25.08,0,0,0,23.6,25c.5,0,1,0,1.5,0l551.12-.8a25.1,25.1,0,0,0,25-25.1l-.23-154.26,446.07,42.14.92.07a25,25,0,0,0,26.39-22.66l51.83-548.68A24.9,24.9,0,0,0,1672.7,102.9Zm-1550.24,611-.15,0c.29,0,.59,0,.89,0ZM602.69,71.05h.75l.16,0C603.3,71.06,603,71.05,602.69,71.05ZM576.34,819.61l-.3,0c.38,0,.76.06,1.14.06ZM1105,52.91h.48l.52,0C1105.7,52.92,1105.37,52.91,1105,52.91ZM1600.75,681.7l-.52,0L1487.16,671h0l113,10.68c.34,0,.67,0,1,0Z"/><path class="cls-2" d="M121.84,724.82C83.38,711.58,78.06,685,80.72,649.07S118,627.78,118,627.78Z"/><path class="cls-3" d="M627.48,82.12c-5.38-29,1.27-60.89-42.63-59.56S541,73.11,545,73.11,627.48,82.12,627.48,82.12Z"/><path class="cls-4" d="M1678.47,120.33C1684,77.1,1680.58,63,1637.68,56,1607,51,1614.07,135,1614.07,135Z"/><path class="cls-2" d="M121.84,724.82C83.38,711.58,78.06,685,80.72,649.07S118,627.78,118,627.78Z"/><path class="cls-5" d="M1672.7,103.15a24.91,24.91,0,0,0-17-9L1107.07,42.34l-.93-.07h0a25,25,0,0,0-26.38,22.66l-15.48,163.88-418.61.62L627.48,82.37a25.05,25.05,0,0,0-23.41-22h0a25.51,25.51,0,0,0-4.54.15L52.58,128.21a25.09,25.09,0,0,0-21.8,27.95l67.64,547a25.06,25.06,0,0,0,23.42,22,26.4,26.4,0,0,0,4.53-.15l425.54-52.63-7.29,107.38c-3,35.91,17.88,50.3,31.09,51.06.5,0,1,0,1.5,0l551.12-.81c13.82,0,32.84-10.54,32.82-24.36l-.23-154.26,438.28,41.41.92.07a25,25,0,0,0,26.39-22.67l51.83-548.68A24.87,24.87,0,0,0,1672.7,103.15Zm-1550.24,611h-.15c.29,0,.59,0,.89,0C123,714.19,122.71,714.2,122.46,714.18ZM602.69,71.3c.25,0,.5,0,.75,0h.16C603.3,71.3,603,71.3,602.69,71.3ZM576.34,819.85l-.3,0c.38,0,.76,0,1.14,0C576.9,819.87,576.62,819.87,576.34,819.85ZM1105,53.15h.48l.52,0C1105.7,53.16,1105.37,53.16,1105,53.15Zm495.71,628.79-.52,0-113.07-10.68h0l113,10.68c.34,0,.67,0,1,0Z"/><path class="cls-6" d="M103.56,680.37a19.37,19.37,0,0,1-19.19-17L16.73,116.44A19.38,19.38,0,0,1,33.56,94.85l547-67.64A19.32,19.32,0,0,1,602.09,44l67.65,547a19.37,19.37,0,0,1-16.83,21.58L106,680.22A19.17,19.17,0,0,1,103.56,680.37Z"/><path class="cls-7" d="M582.9,32.25a14.17,14.17,0,0,1,14,12.43l67.64,547a14.16,14.16,0,0,1-12.31,15.79l-547,67.65a14.82,14.82,0,0,1-1.75.11,14.17,14.17,0,0,1-14-12.43L21.88,115.8A14.16,14.16,0,0,1,34.19,100l547-67.65a15,15,0,0,1,1.75-.11m0-10.38h0a23.55,23.55,0,0,0-3,.19L32.92,89.7a24.58,24.58,0,0,0-21.35,27.37L79.22,664a24.56,24.56,0,0,0,24.34,21.53,25.79,25.79,0,0,0,3-.18l546.95-67.65a24.57,24.57,0,0,0,21.35-27.37l-67.64-547a24.58,24.58,0,0,0-24.34-21.53Z"/><rect class="cls-6" x="53.51" y="63.99" width="579.44" height="579.44" rx="14.16" transform="translate(-40.82 44.8) rotate(-7.05)"/><path class="cls-6" d="M1581.85,648.13q-.91,0-1.83-.09l-548.68-51.83a19.37,19.37,0,0,1-17.45-21.09l51.83-548.68A19.27,19.27,0,0,1,1085,8.91c.61,0,1.23,0,1.84.09l548.68,51.83a19.38,19.38,0,0,1,17.45,21.08L1601.1,630.59A19.26,19.26,0,0,1,1581.85,648.13Z"/><path class="cls-7" d="M1085,14.1a12.21,12.21,0,0,1,1.35.07L1635,66a14.16,14.16,0,0,1,12.77,15.43l-51.84,548.68a14.15,14.15,0,0,1-14.08,12.82c-.44,0-.89,0-1.34-.06L1031.83,591a14.16,14.16,0,0,1-12.77-15.43l51.83-548.68A14.17,14.17,0,0,1,1085,14.1m0-10.38h0A24.44,24.44,0,0,0,1060.55,26l-51.83,548.68a24.57,24.57,0,0,0,22.13,26.75l548.68,51.83c.77.07,1.55.11,2.32.11a24.42,24.42,0,0,0,24.42-22.24L1658.11,82.4A24.55,24.55,0,0,0,1636,55.66L1087.3,3.83a22.71,22.71,0,0,0-2.33-.11Z"/><rect class="cls-6" x="1043.69" y="38.8" width="579.44" height="579.44" rx="14.16" transform="translate(880.95 1625.12) rotate(-84.6)"/><path class="cls-8" d="M1540.28,591.89a50.82,50.82,0,0,0-26.18-25.59c10.41-14.67,12.91-37,6.09-56.78-4.61-13.39-17.49-36.57-52.27-45.81,8-12.17,10-28.12,4.89-42.94-5-14.63-16.06-25.42-30-29.61,9.29-20.24,13-42,14-60.39q.2-3.27.28-6.52a46,46,0,0,0,11.19,3,45.65,45.65,0,1,0-20.85-81.91c-1.93-7.13-4-13.8-6.25-19.9,14.13-6.6,21.62-17.68,20.64-30.78-1.56-21-25.57-47.42-75.71-59.18-33.09-7.76-68.35-9.34-99.29-4.43-30,4.75-54,15.13-67.64,29.22-10,10.29-14,22.19-11.83,34.61-5.77,2.41-16.72,9-21.32,25.2-2.66,9.36-1.55,23.22.53,35.85l1.42,7.77c1.68,8.39,3.55,15.56,4.63,19.45-16.51,5.39-29.4,21.69-31.26,42-1.73,18.91,6.64,36.18,20.17,45.13a42.26,42.26,0,0,0-23.31,20c-8.3,15-8.06,33.3.25,47-20.57-.3-48.61,12-63,34.64-8.47,13.37-15,35.18,1.24,63.44-30.09,12-46.08,37-38.25,61a3.85,3.85,0,0,0,7.5-.85l176.23,16.12a3.84,3.84,0,0,0,2.41,4,3.9,3.9,0,0,0,1.41.26,3.85,3.85,0,0,0,3.59-2.45c.13-.35.25-.7.37-1l209.3,19.15a3.84,3.84,0,0,0,3.13,4.14,4.11,4.11,0,0,0,.69.06,3.84,3.84,0,0,0,3.79-3.17l.06-.33,65.77,6a3.84,3.84,0,0,0,7.39,1.81C1546.94,623.48,1547,606.38,1540.28,591.89Z"/><path class="cls-8" d="M561.55,619.84C548.29,570.75,497.18,506.53,469,494.37c14.16-20.05,19.57-36.39,16.55-49.86-2.44-10.85-10.13-19.57-23.51-26.68-2.68-1.42-5.91-2.92-9.63-4.47.9-2.07,1.72-4.16,2.48-6.25a15.48,15.48,0,0,0,5.46-9,21.34,21.34,0,0,0,4.94.61,20.63,20.63,0,0,0,19.59-14.22c3.06-9.6,1.41-32.53-.44-45.6-1.49-10.48-3.13-20.52-4.9-29.93a38,38,0,0,0,33.18-41.1,38,38,0,0,0-41.4-34.29A38.14,38.14,0,0,0,459,236.78c-12.28-29.18-28.12-49.86-48.36-63.08-21.1-13.79-47.08-19.58-79.43-17.69a140.52,140.52,0,0,0-34.93,6.31,146.27,146.27,0,0,0-40,13.16c-24.35,11.85-42.7,29.89-53.07,52.17-10.12,21.75-13,47.64-8.66,77.28L194,305a4.35,4.35,0,0,0,.54,8.67l.54,0,.9-.12q2,10.56,5.15,21.71c-20.88,5.18-34.9,27.5-31.83,52a53.81,53.81,0,0,0,2.55,11c-28.63,10.74-62.12,29.45-64.65,58.7C104,494.15,132.48,541,193.08,559c-16.6,30.84-23.83,64.82-25.05,86.71a93.75,93.75,0,0,0,.93,21.49,3.88,3.88,0,0,0,3.8,3.16,3.51,3.51,0,0,0,.72-.07,3.85,3.85,0,0,0,3.11-4.26l120.14-14.25a3.86,3.86,0,0,0,3.78,3.42h0a3.86,3.86,0,0,0,3.87-3.83c0-.11,0-.28,0-.5l249.5-29.59.15.54a3.87,3.87,0,1,0,7.47-2Z"/><path class="cls-6" d="M568.55,793.11a19.37,19.37,0,0,1-19.35-19.32l-.81-551.13a19.36,19.36,0,0,1,19.32-19.38l551.12-.8a19.39,19.39,0,0,1,19.39,19.32l.8,551.12a19.34,19.34,0,0,1-19.32,19.38l-551.12.81Z"/><path class="cls-7" d="M1118.86,207.67A14.16,14.16,0,0,1,1133,221.81l.81,551.12a14.16,14.16,0,0,1-14.14,14.18l-551.12.81h0a14.16,14.16,0,0,1-14.16-14.14l-.81-551.12a14.16,14.16,0,0,1,14.14-14.18l551.12-.81h0m0-10.39h0l-551.13.81a24.55,24.55,0,0,0-24.51,24.58l.8,551.12a24.58,24.58,0,0,0,24.55,24.51l551.16-.8a24.58,24.58,0,0,0,24.51-24.59l-.81-551.12a24.58,24.58,0,0,0-24.55-24.51Z"/><rect class="cls-6" x="553.99" y="208.07" width="579.44" height="579.44" rx="14.16" transform="translate(-0.73 1.24) rotate(-0.08)"/><path class="cls-8" d="M972.15,630A30.79,30.79,0,0,0,977,606.53c-1.52-7-6.5-16.81-21.29-24.31,14.47-25.07,17.42-54.16,16.64-77.4-1.33-39.25-13.41-76.61-25.64-101.54,15.89-10.08,24.93-26.49,24.26-44.41-.68-18.35-11.4-34.24-28.67-42.5-16.92-8.08-37.53-4.69-46-2.75-2.42-9.07-10.81-30.59-36.44-34-38.75-5.16-84,39.9-101,56.87l-1,1c-.76-11.68-3.11-33.38-14.25-42.72a19.43,19.43,0,0,0-15.43-4.39,16.35,16.35,0,0,0-12.59,8c-7.64,13-.71,38.21,3.68,51.1-8-2.6-20-5.4-27.23-1.42a11.59,11.59,0,0,0-5.93,8.8,14.27,14.27,0,0,0,3,11.23c5,6.46,15.06,9.67,22.07,11.18-8.83,9.19-24.76,29.33-20.87,51.87,4.13,23.85,16.09,48,20.42,56.17-11.1,8.11-18.47,22.19-18.44,38.18,0,25,18.14,45.34,40.36,45.31a37.25,37.25,0,0,0,22.32-7.68,87.19,87.19,0,0,0,15,26.79c-10.46,4-17.61,11.09-20.34,20.19a29.66,29.66,0,0,0,4.07,24.75c-32.72,13.1-61.8,138.68-65.06,153.2-.25,1.09,324.35,0,324.29-1C1006.15,679.37,986,639.1,972.15,630Z"/><path class="cls-7" d="M856.25,523.85q6.75,1.92,9.49,6.57a12.5,12.5,0,0,1,1.78,9.16,12.84,12.84,0,0,1-5.29,7.72q-4.34,3.23-11.4,2.26A34,34,0,0,1,834.75,542a33.36,33.36,0,0,1-9.34-13A31,31,0,0,1,823.78,513a36.4,36.4,0,0,1,7.37-16.72,60.69,60.69,0,0,1,10.43-10.46q6.57-5.31,13.32-10.62t12.51-10.78A32.91,32.91,0,0,0,875.59,453a17.11,17.11,0,0,0,.3-12.21q-2.1-6.27-11.42-13l-1.93-.64c-.64-.21-1.4-.42-2.25-.64a49.14,49.14,0,0,0-25.37,8.39A82.63,82.63,0,0,0,815,453.54q-4.5,5.47-9.79,6.12a12.23,12.23,0,0,1-14.15-10.1q-1.14-5.31,2.71-11.41A112,112,0,0,1,809,422.06,92.5,92.5,0,0,1,828,409.18a84.16,84.16,0,0,1,20.71-7.42,47.75,47.75,0,0,1,20.25-.19,40.1,40.1,0,0,1,17.85,9.13q8.19,7.05,13.68,20.54A36.29,36.29,0,0,1,903.38,448a48.13,48.13,0,0,1-3.84,15.43,52.75,52.75,0,0,1-8.65,13.67,97.74,97.74,0,0,1-12.19,11.74,87.06,87.06,0,0,1-7.87,5.64,88.32,88.32,0,0,0-10.75,8.37,44.46,44.46,0,0,0-8.18,9.65q-3,5-.79,9.8c.43.43.75.64,1,.64a3.65,3.65,0,0,0,2.09.64A6.67,6.67,0,0,1,856.25,523.85Zm-26.9,58.52A17.55,17.55,0,0,1,847,564.67a17.65,17.65,0,0,1,12.7,5.13A16.79,16.79,0,0,1,865,582.32a18.11,18.11,0,0,1-18,18,16.77,16.77,0,0,1-12.54-5.28A17.58,17.58,0,0,1,829.35,582.37Z"/><polygon class="cls-7" points="346.71 647.06 157.38 669.68 160.48 675 347.15 652.38 346.71 647.06"/><polygon class="cls-7" points="1559.37 641.3 1152.34 604.05 1157.66 611.37 1559.37 651.28 1559.37 641.3"/><path class="cls-7" d="M1347.92,344.4c3.57,1.39,6,3.43,7.22,6.09a10.25,10.25,0,0,1,.73,7.6A10.52,10.52,0,0,1,1351,364q-3.78,2.28-9.47.95a27.78,27.78,0,0,1-12.51-7.39,27.18,27.18,0,0,1-6.59-11.32,25.36,25.36,0,0,1-.07-13.21,29.65,29.65,0,0,1,7.31-13.05,49.19,49.19,0,0,1,9.31-7.7q5.77-3.81,11.68-7.61t11-7.81a26.94,26.94,0,0,0,7.55-8.66,14,14,0,0,0,1.21-9.93q-1.23-5.26-8.3-11.48l-1.52-.67c-.5-.22-1.1-.46-1.78-.7a40.22,40.22,0,0,0-21.33,4.86,67.12,67.12,0,0,0-17.66,13.65c-2.73,2.74-5.54,4.14-8.46,4.22a10,10,0,0,1-10.74-9.34q-.51-4.41,3.11-9.08a91.38,91.38,0,0,1,13.67-11.92,75.59,75.59,0,0,1,16.43-9,69.15,69.15,0,0,1,17.46-4.43,39.24,39.24,0,0,1,16.5,1.43,32.92,32.92,0,0,1,13.83,8.83q6.13,6.41,9.54,17.81a29.69,29.69,0,0,1,1.07,13.84,39.15,39.15,0,0,1-4.33,12.27,43.05,43.05,0,0,1-8.12,10.46,79.89,79.89,0,0,1-10.85,8.61,71.07,71.07,0,0,1-6.84,4,71.38,71.38,0,0,0-9.42,6,36.18,36.18,0,0,0-7.41,7.22,8,8,0,0,0-1.41,7.92c.31.39.56.58.73.6a2.94,2.94,0,0,0,1.65.68A5.61,5.61,0,0,1,1347.92,344.4ZM1321.43,390a14.35,14.35,0,0,1,15.76-13,14.39,14.39,0,0,1,9.94,5.16,13.74,13.74,0,0,1,3.36,10.62,14.81,14.81,0,0,1-16,13.28,13.73,13.73,0,0,1-9.8-5.29A14.38,14.38,0,0,1,1321.43,390Z"/><path class="cls-7" d="M360.72,366.21q5.67.9,8.36,4.4a10.2,10.2,0,0,1,2.35,7.26,10.53,10.53,0,0,1-3.53,6.8q-3.19,3-9,3a27.76,27.76,0,0,1-13.8-4.52,27.16,27.16,0,0,1-8.88-9.63,25.4,25.4,0,0,1-2.92-12.89,29.64,29.64,0,0,1,4.33-14.31,49,49,0,0,1,7.43-9.53q4.82-5,9.77-10t9.09-10a26.83,26.83,0,0,0,5.51-10.09,14,14,0,0,0-1-9.94q-2.34-4.89-10.58-9.43l-1.63-.33c-.54-.1-1.17-.2-1.89-.29a40.13,40.13,0,0,0-19.78,9.33,67.92,67.92,0,0,0-14.31,17.14q-3.11,4.89-7.34,5.94a10,10,0,0,1-12.5-6.8q-1.45-4.18,1.07-9.54a92.06,92.06,0,0,1,10.78-14.58,75.42,75.42,0,0,1,14.11-12.34,69.19,69.19,0,0,1,16.09-8.09,39.38,39.38,0,0,1,16.43-2.16,32.83,32.83,0,0,1,15.4,5.65q7.37,4.92,13.16,15.33a29.93,29.93,0,0,1,4,13.28,39.4,39.4,0,0,1-1.59,12.91,43.16,43.16,0,0,1-5.67,12,80.48,80.48,0,0,1-8.74,10.75,73.31,73.31,0,0,1-5.83,5.36,71.46,71.46,0,0,0-7.9,7.86,36.37,36.37,0,0,0-5.69,8.65,8,8,0,0,0,.33,8c.39.31.67.45.85.43a2.92,2.92,0,0,0,1.76.31A5.83,5.83,0,0,1,360.72,366.21Zm-16.05,50.21a14.38,14.38,0,0,1,12.58-16.13,14.44,14.44,0,0,1,10.82,2.9,13.77,13.77,0,0,1,5.57,9.65,14.81,14.81,0,0,1-12.81,16.42,13.71,13.71,0,0,1-10.71-3.05A14.37,14.37,0,0,1,344.67,416.42Z"/></svg>