<svg width="1085" height="60" viewBox="0 0 1085 60" fill="none" xmlns="http://www.w3.org/2000/svg">
<path fill-rule="evenodd" clip-rule="evenodd" d="M764.896 17.9583L775.189 59.8689L780.186 18.9576H781.023C784.181 20.2188 787.685 21.6517 790.206 22.6927L797.285 37.5926L799.961 22.4754C812.433 21.7191 828.048 20.7089 829.376 20.3765C831.06 19.9552 846.562 23.3604 854.102 25.1156L861.628 20.5424L872.16 33.7371L878.656 22.8495L881.985 25.1156L890.928 20.3765L920.915 25.1156L932.279 18.7968H953.007L966.159 23.0093L970.605 22.1919L983.797 37.5926L994.581 20.2427H1000.73L1022.45 25.1156L1043.01 21.8123L1059.76 52.3721L1065 58.5L1068 52.3721L1069.27 47.2314L1084.5 14L1055.43 8.26553C1052.59 7.11843 1049.71 5.93937 1047.7 5.10626C1035.6 5.80834 1010.98 7.31783 1009.3 7.73907C1007.61 8.16032 992.113 4.7552 984.572 3L975.907 8.26553H964.426L956.689 3L947.746 7.73907L917.759 3L908.29 8.26553H882.379L872.516 5.10626L855.331 8.26553H839.695L816.224 3L783.389 7.73907L755.389 8.26553L712.5 0L709.512 8.26553H698.03L690.294 3L681.35 7.73907L651.363 3L641.894 8.26553H615.984L606.12 5.10626L588.935 8.26553H573.3L549.828 3L538.676 3.89085L533.13 3L523.897 5.07136L490.96 7.70231L476.839 5.10626L466.975 8.26553H441.065L431.595 3L401.608 7.73907L392.665 3L384.929 8.26553H373.447L368.5 1.5L327.569 8.26553L299.569 7.73907L266.735 3L243.263 8.26553H227.628L210.443 5.10626L200.579 8.26553H174.669L165.2 3L135.213 7.73907L126.269 3L118.533 8.26553H107.051L98.3867 3C90.8461 4.7552 75.344 8.16032 73.6605 7.73907C71.9771 7.31783 47.3561 5.80834 35.2562 5.10626L10 10L0.5 13L10 31L19.5 25.1156L23.2012 52.3721L39.9453 21.8123L60.5085 25.1156L82.2293 20.2427H88.3782L99.1613 37.5926L112.354 22.1919L116.8 23.0093L129.952 18.7968H150.68L162.043 25.1156L192.03 20.3765L200.974 25.1156L204.303 22.8495L210.799 33.7371L221.331 20.5424L228.856 25.1156C236.397 23.3604 251.899 19.9552 253.582 20.3765C254.911 20.7089 270.526 21.7191 282.998 22.4754L285.674 37.5926L292.753 22.6927C295.274 21.6517 298.778 20.2188 301.936 18.9576H302.773L307.769 59.8689L318.063 17.9583L348.625 20.2427H354.774L365.557 37.5926L378.749 22.1919L383.196 23.0093L396.348 18.7968H417.076L428.439 25.1156L458.426 20.3765L467.37 25.1156L470.699 22.8495L477.195 33.7371L487.727 20.5424L495.252 25.1156C496.615 24.7983 498.238 24.4272 499.992 24.0345L508.794 59.8689L513.515 21.2072C515.451 20.8468 517.118 20.5707 518.294 20.4345C520.299 21.2484 522.245 22.0461 523.81 22.6927L530.889 37.5926L533.565 22.4754C536.121 22.3204 538.809 22.1548 541.479 21.9865C544.149 22.1548 546.837 22.3204 549.393 22.4754L552.069 37.5926L559.148 22.6927C560.714 22.0461 562.659 21.2484 564.665 20.4345C565.841 20.5707 567.507 20.8468 569.444 21.2072L574.165 59.8689L582.966 24.0345C584.721 24.4272 586.344 24.7983 587.707 25.1156L595.232 20.5424L605.764 33.7371L612.26 22.8495L615.589 25.1156L624.533 20.3765L654.52 25.1156L665.883 18.7968H686.611L699.763 23.0093L704.209 22.1919L717.402 37.5926L728.185 20.2427H734.334L764.896 17.9583Z" fill="#B0ECFF"/>
</svg>
