<svg width="426" height="96" viewBox="0 0 426 96" fill="none" xmlns="http://www.w3.org/2000/svg">
<path d="M0.204102 39.5518C11.5062 38.4352 20.0511 37.877 25.8389 37.877C31.6266 37.877 36.2067 38.2985 39.5791 39.1416C42.9743 39.9847 45.7656 41.2949 47.9531 43.0723C52.1914 46.5358 54.3105 52.221 54.3105 60.1279C54.3105 63.6826 53.6383 66.9411 52.2939 69.9033C50.9495 72.8656 49.1152 75.4062 46.791 77.5254C44.4668 79.6445 41.7438 81.2965 38.6221 82.4814C35.5003 83.6663 32.1621 84.2588 28.6074 84.2588L22.5234 84.1221V94H0.204102V39.5518ZM31 52.0615C29.0404 52.0615 26.1693 53.4173 22.3867 56.1289V69.0146L26.3857 67.0664C29.029 65.7676 30.8747 64.5257 31.9229 63.3408C33.8825 61.1305 34.8623 58.9316 34.8623 56.7441C34.8623 54.5566 34.1217 53.1097 32.6406 52.4033C32.1621 52.1755 31.6152 52.0615 31 52.0615Z" fill="#3BB9FF"/>
<path d="M60.0869 39.415H99.4277V55.1377H81.3467V59.6152H99.3594V73.0137H81.3467V78.1748H100.624V94H60.0869V39.415Z" fill="#3BB9FF"/>
<path d="M108.759 39.415H114.296L144.101 60.6748V39.415H163.344V94H155.995L127.934 75.2354V94H108.759V39.415Z" fill="#3BB9FF"/>
<path d="M215.434 68.0234L220.663 67.9893C221.939 67.9893 222.68 67.9779 222.885 67.9551V93.3164C214.887 94.6608 208.507 95.333 203.744 95.333C198.982 95.333 194.516 94.6608 190.346 93.3164C186.176 91.9492 182.564 90.0124 179.511 87.5059C176.457 84.9993 174.065 81.9688 172.333 78.4141C170.601 74.8366 169.735 70.8376 169.735 66.417C169.735 57.7354 173.188 50.8083 180.092 45.6357C187.019 40.4632 195.894 37.877 206.718 37.877C212.027 37.877 216.231 38.4466 219.33 39.5859C219.877 39.791 220.173 39.8936 220.219 39.8936V56.4023C216.869 55.377 213.793 54.8643 210.99 54.8643C205.886 54.8643 201.887 56.2201 198.993 58.9316C196.099 61.6432 194.664 64.765 194.687 68.2969C194.687 70.7578 195.359 72.7744 196.703 74.3467C198.07 75.9189 199.939 76.7051 202.309 76.7051C203.585 76.7051 204.564 76.5456 205.248 76.2266C205.294 75.3835 205.316 74.3011 205.316 72.9795V68.0234C208.689 68.0234 212.061 68.0234 215.434 68.0234Z" fill="#3BB9FF"/>
<path d="M257.304 95.333C239.188 95.333 230.131 87.6312 230.131 72.2275V39.415H251.698V71.6123C251.698 74.848 252.781 76.9557 254.945 77.9355C255.697 78.2773 256.597 78.4482 257.646 78.4482C260.608 78.4482 262.476 77.0355 263.251 74.21C263.479 73.3669 263.593 72.4554 263.593 71.4756V39.415H282.494V72.2275C282.494 87.6312 274.097 95.333 257.304 95.333Z" fill="#3BB9FF"/>
<path d="M311.649 94H290.39V39.415H311.649V94Z" fill="#3BB9FF"/>
<path d="M319.989 39.415H325.526L355.331 60.6748V39.415H374.574V94H367.226L339.164 75.2354V94H319.989V39.415Z" fill="#3BB9FF"/>
<path d="M402.602 95.333C392.37 95.333 385.58 94.0684 382.23 91.5391V75.8848C382.322 75.9076 382.652 76.0101 383.222 76.1924C383.814 76.3747 384.555 76.6025 385.443 76.876C387.517 77.514 389.693 78.1178 391.972 78.6875C394.273 79.2344 396.119 79.5078 397.509 79.5078C399.787 79.5078 400.927 78.8128 400.927 77.4229C400.927 76.3519 399.947 75.2126 397.987 74.0049C397.099 73.458 396.085 72.8883 394.945 72.2959C393.829 71.7035 392.689 71.0426 391.527 70.3135C388.679 68.5589 386.389 66.5081 384.657 64.1611C382.948 61.8141 382.094 58.8519 382.094 55.2744C382.094 47.4587 386.218 42.2064 394.467 39.5176C397.816 38.4238 401.679 37.877 406.054 37.877C410.451 37.877 415.043 38.3783 419.828 39.3809C420.808 39.5859 421.457 39.734 421.776 39.8252V55.5137C415.578 54.1921 411.124 53.5312 408.412 53.5312C407.364 53.5312 406.578 53.7135 406.054 54.0781C405.53 54.4427 405.268 54.8529 405.268 55.3086C405.268 55.7643 405.495 56.2428 405.951 56.7441C406.407 57.2227 407.193 57.7126 408.31 58.2139C409.426 58.6924 410.725 59.2848 412.206 59.9912C413.71 60.6748 415.111 61.4154 416.41 62.2129C422.243 65.7904 425.16 70.6781 425.16 76.876C425.16 82.7549 423.178 87.3008 419.213 90.5137C415.202 93.7038 409.665 95.3102 402.602 95.333Z" fill="#3BB9FF"/>
<path d="M1.66016 23V1.01H7.78016C9.48016 1.01 10.8702 1.31 11.9502 1.91C13.0302 2.51 13.8302 3.31 14.3502 4.31C14.8702 5.31 15.1302 6.42 15.1302 7.64V8C15.1302 9.22 14.8702 10.33 14.3502 11.33C13.8302 12.33 13.0302 13.13 11.9502 13.73C10.8702 14.33 9.48016 14.63 7.78016 14.63H3.28016V23H1.66016ZM7.99016 2.48H3.28016V13.16H7.99016C9.31016 13.16 10.3702 12.92 11.1702 12.44C11.9702 11.96 12.5602 11.32 12.9402 10.52C13.3202 9.7 13.5102 8.8 13.5102 7.82C13.5102 6.84 13.3202 5.95 12.9402 5.15C12.5602 4.33 11.9702 3.68 11.1702 3.2C10.3702 2.72 9.31016 2.48 7.99016 2.48Z" fill="#B0ECFF"/>
<path d="M28.6037 23.51C26.6037 23.51 24.9537 23.13 23.6537 22.37C22.3737 21.59 21.4137 20.53 20.7737 19.19C20.1537 17.85 19.8437 16.32 19.8437 14.6V1.1H21.4637V14.81C21.4637 16.95 22.0437 18.69 23.2037 20.03C24.3837 21.35 26.1837 22.01 28.6037 22.01C31.0437 22.01 32.8437 21.35 34.0037 20.03C35.1637 18.71 35.7437 16.97 35.7437 14.81V1.1H37.3637V14.6C37.3637 16.32 37.0537 17.85 36.4337 19.19C35.8137 20.53 34.8537 21.59 33.5537 22.37C32.2737 23.13 30.6237 23.51 28.6037 23.51Z" fill="#B0ECFF"/>
<path d="M44.2578 23.09V1.01H51.6078C53.5478 1.01 55.2278 1.32 56.6478 1.94C58.0678 2.54 59.2378 3.35 60.1578 4.37C61.0978 5.39 61.7978 6.54 62.2578 7.82C62.7178 9.1 62.9478 10.42 62.9478 11.78V12.26C62.9478 13.56 62.7278 14.86 62.2878 16.16C61.8478 17.44 61.1678 18.61 60.2478 19.67C59.3278 20.71 58.1478 21.54 56.7078 22.16C55.2878 22.78 53.5878 23.09 51.6078 23.09H44.2578ZM51.7878 2.51H45.8778V21.59H51.7878C53.4078 21.59 54.8078 21.33 55.9878 20.81C57.1878 20.29 58.1778 19.58 58.9578 18.68C59.7578 17.78 60.3478 16.76 60.7278 15.62C61.1078 14.46 61.2978 13.26 61.2978 12.02C61.2978 10.3 60.9478 8.72 60.2478 7.28C59.5478 5.84 58.4878 4.69 57.0678 3.83C55.6678 2.95 53.9078 2.51 51.7878 2.51Z" fill="#B0ECFF"/>
<path d="M77.612 23.51C75.712 23.51 74.062 23.19 72.662 22.55C71.282 21.91 70.132 21.05 69.212 19.97C68.312 18.87 67.642 17.65 67.202 16.31C66.762 14.97 66.542 13.6 66.542 12.2V11.72C66.542 10.34 66.762 8.99 67.202 7.67C67.662 6.33 68.332 5.13 69.212 4.07C70.112 2.99 71.222 2.13 72.542 1.49C73.862 0.849999 75.392 0.529999 77.132 0.529999C78.872 0.529999 80.412 0.859999 81.752 1.52C83.092 2.18 84.172 3.09 84.992 4.25C85.832 5.41 86.342 6.77 86.5219 8.33H84.872C84.712 6.97 84.262 5.83 83.522 4.91C82.802 3.97 81.892 3.26 80.792 2.78C79.692 2.28 78.472 2.03 77.132 2.03C75.232 2.03 73.6119 2.48 72.2719 3.38C70.9519 4.28 69.942 5.48 69.242 6.98C68.542 8.48 68.192 10.14 68.192 11.96C68.192 13.78 68.532 15.46 69.212 17C69.892 18.52 70.932 19.74 72.332 20.66C73.732 21.56 75.492 22.01 77.612 22.01C79.112 22.01 80.462 21.77 81.662 21.29C82.862 20.81 83.862 20.15 84.662 19.31V14.45H76.802V13.07H88.262V14.45H86.222V19.79C85.322 20.93 84.142 21.84 82.682 22.52C81.242 23.18 79.552 23.51 77.612 23.51Z" fill="#B0ECFF"/>
<path d="M97.9091 23V14.39H96.7691L89.6891 1.1H91.3691L97.7291 13.04H99.7391L105.769 1.1H107.389L100.609 14.39H99.4991V23H97.9091Z" fill="#B0ECFF"/>
</svg>
