<svg width="180" height="41" viewBox="0 0 180 41" fill="none" xmlns="http://www.w3.org/2000/svg">
<path d="M0 16.9456C4.76321 16.475 8.36444 16.2397 10.8037 16.2397C13.2429 16.2397 15.1731 16.4174 16.5944 16.7727C18.0253 17.128 19.2017 17.6802 20.1236 18.4293C21.9098 19.889 22.8029 22.285 22.8029 25.6173C22.8029 27.1154 22.5196 28.4887 21.953 29.7371C21.3864 30.9855 20.6134 32.0563 19.6339 32.9494C18.6543 33.8425 17.5067 34.5387 16.1911 35.0381C14.8754 35.5375 13.4686 35.7871 11.9705 35.7871L9.40639 35.7295V39.8925H0V16.9456ZM12.9788 22.2177C12.1529 22.2177 10.9429 22.7891 9.34877 23.9319V29.3626L11.0341 28.5415C12.1481 27.9941 12.926 27.4707 13.3677 26.9714C14.1936 26.0398 14.6066 25.1131 14.6066 24.1912C14.6066 23.2693 14.2944 22.6595 13.6702 22.3618C13.4686 22.2658 13.2381 22.2177 12.9788 22.2177Z" fill="white"/>
<path d="M25.2374 16.8879H41.8174V23.5142H34.1972V25.4012H41.7886V31.0479H34.1972V33.2231H42.3215V39.8925H25.2374V16.8879Z" fill="white"/>
<path d="M45.7499 16.8879H48.0835L60.6446 25.8478V16.8879H68.7545V39.8925H65.6575L53.831 31.9843V39.8925H45.7499V16.8879Z" fill="white"/>
<path d="M90.7076 28.9448L92.9115 28.9304C93.4493 28.9304 93.7614 28.9256 93.8478 28.916V39.6044C90.4771 40.171 87.7882 40.4543 85.7811 40.4543C83.774 40.4543 81.8918 40.171 80.1344 39.6044C78.377 39.0282 76.8549 38.212 75.568 37.1556C74.2812 36.0992 73.2728 34.822 72.543 33.3239C71.8131 31.8162 71.4482 30.1308 71.4482 28.2678C71.4482 24.609 72.9031 21.6896 75.8129 19.5096C78.7323 17.3297 82.4728 16.2397 87.0343 16.2397C89.2719 16.2397 91.0437 16.4798 92.3497 16.96C92.5802 17.0464 92.705 17.0896 92.7242 17.0896V24.0472C91.3126 23.615 90.0161 23.3989 88.8349 23.3989C86.6838 23.3989 84.9984 23.9703 83.7788 25.1131C82.5592 26.2559 81.9542 27.5716 81.9638 29.0601C81.9638 30.0972 82.2471 30.9471 82.8137 31.6097C83.3899 32.2724 84.1773 32.6037 85.1761 32.6037C85.7139 32.6037 86.1268 32.5364 86.4149 32.402C86.4341 32.0467 86.4437 31.5905 86.4437 31.0335V28.9448C87.865 28.9448 89.2863 28.9448 90.7076 28.9448Z" fill="white"/>
<path d="M108.354 40.4543C100.719 40.4543 96.9016 37.2084 96.9016 30.7166V16.8879H105.991V30.4573C105.991 31.821 106.447 32.7093 107.36 33.1222C107.677 33.2663 108.056 33.3383 108.498 33.3383C109.746 33.3383 110.533 32.7429 110.86 31.5521C110.956 31.1968 111.004 30.8127 111.004 30.3997V16.8879H118.97V30.7166C118.97 37.2084 115.431 40.4543 108.354 40.4543Z" fill="white"/>
<path d="M131.257 39.8925H122.297V16.8879H131.257V39.8925Z" fill="white"/>
<path d="M134.772 16.8879H137.106L149.667 25.8478V16.8879H157.777V39.8925H154.68L142.853 31.9843V39.8925H134.772V16.8879Z" fill="white"/>
<path d="M169.589 40.4543C165.277 40.4543 162.415 39.9213 161.003 38.8554V32.2579C161.042 32.2675 161.181 32.3108 161.421 32.3876C161.671 32.4644 161.983 32.5604 162.357 32.6757C163.231 32.9446 164.148 33.1991 165.109 33.4391C166.079 33.6696 166.857 33.7849 167.442 33.7849C168.403 33.7849 168.883 33.492 168.883 32.9062C168.883 32.4548 168.47 31.9746 167.644 31.4657C167.27 31.2352 166.842 30.9951 166.362 30.7454C165.891 30.4957 165.411 30.2173 164.922 29.91C163.721 29.1705 162.756 28.3062 162.026 27.3171C161.306 26.3279 160.946 25.0795 160.946 23.5718C160.946 20.2779 162.684 18.0643 166.16 16.9311C167.572 16.4702 169.2 16.2397 171.044 16.2397C172.897 16.2397 174.832 16.451 176.849 16.8735C177.262 16.96 177.535 17.0224 177.67 17.0608V23.6726C175.058 23.1156 173.18 22.8372 172.038 22.8372C171.596 22.8372 171.264 22.914 171.044 23.0676C170.823 23.2213 170.712 23.3941 170.712 23.5862C170.712 23.7783 170.808 23.9799 171 24.1912C171.192 24.3929 171.524 24.5993 171.994 24.8106C172.465 25.0123 173.012 25.262 173.636 25.5597C174.27 25.8478 174.861 26.1599 175.408 26.496C177.867 28.0037 179.096 30.0636 179.096 32.6757C179.096 35.1533 178.26 37.0692 176.589 38.4232C174.899 39.7677 172.566 40.4447 169.589 40.4543Z" fill="white"/>
<path d="M0.61377 9.96989V0.702294H3.19302C3.90948 0.702294 4.49528 0.828727 4.95045 1.0816C5.40561 1.33446 5.74276 1.67162 5.96192 2.09306C6.18107 2.51451 6.29064 2.98232 6.29064 3.49648V3.6482C6.29064 4.16236 6.18107 4.63017 5.96192 5.05161C5.74276 5.47306 5.40561 5.81022 4.95045 6.06308C4.49528 6.31595 3.90948 6.44239 3.19302 6.44239H1.29651V9.96989H0.61377ZM3.28152 1.32182H1.29651V5.82286H3.28152C3.83783 5.82286 4.28456 5.72171 4.62172 5.51942C4.95888 5.31712 5.20753 5.0474 5.36768 4.71024C5.52783 4.36466 5.6079 3.98536 5.6079 3.57234C5.6079 3.15932 5.52783 2.78424 5.36768 2.44708C5.20753 2.10149 4.95888 1.82755 4.62172 1.62526C4.28456 1.42297 3.83783 1.32182 3.28152 1.32182Z" fill="#FBAF41"/>
<path d="M11.969 10.1848C11.1261 10.1848 10.4307 10.0247 9.88284 9.70438C9.34339 9.37565 8.9388 8.92892 8.66908 8.36418C8.40778 7.79944 8.27713 7.15463 8.27713 6.42974V0.740224H8.95988V6.51825C8.95988 7.42014 9.20432 8.15345 9.69319 8.71819C10.1905 9.2745 10.9491 9.55265 11.969 9.55265C12.9973 9.55265 13.7559 9.2745 14.2448 8.71819C14.7337 8.16188 14.9781 7.42857 14.9781 6.51825V0.740224H15.6609V6.42974C15.6609 7.15463 15.5302 7.79944 15.2689 8.36418C15.0076 8.92892 14.603 9.37565 14.0552 9.70438C13.5157 10.0247 12.8203 10.1848 11.969 10.1848Z" fill="#FBAF41"/>
<path d="M18.5664 10.0078V0.702294H21.664C22.4816 0.702294 23.1896 0.832942 23.7881 1.09424C24.3865 1.34711 24.8796 1.68848 25.2674 2.11835C25.6635 2.54823 25.9585 3.03289 26.1524 3.57234C26.3463 4.11179 26.4432 4.6681 26.4432 5.24126V5.44356C26.4432 5.99144 26.3505 6.53932 26.165 7.0872C25.9796 7.62665 25.693 8.11974 25.3053 8.56647C24.9176 9.00478 24.4203 9.35458 23.8134 9.61587C23.2149 9.87717 22.4985 10.0078 21.664 10.0078H18.5664ZM21.7399 1.33446H19.2491V9.37565H21.7399C22.4226 9.37565 23.0126 9.26607 23.5099 9.04692C24.0157 8.82777 24.4329 8.52854 24.7616 8.14924C25.0988 7.76994 25.3474 7.34006 25.5076 6.85962C25.6677 6.37074 25.7478 5.865 25.7478 5.34241C25.7478 4.61753 25.6003 3.95164 25.3053 3.34476C25.0103 2.73788 24.5635 2.25321 23.9651 1.89077C23.3751 1.5199 22.6333 1.33446 21.7399 1.33446Z" fill="#FBAF41"/>
<path d="M32.6233 10.1848C31.8226 10.1848 31.1272 10.05 30.5372 9.78024C29.9556 9.51051 29.4709 9.14807 29.0832 8.69291C28.7039 8.22932 28.4215 7.71515 28.2361 7.15041C28.0506 6.58568 27.9579 6.0083 27.9579 5.41827V5.21598C27.9579 4.63438 28.0506 4.06543 28.2361 3.50912C28.4299 2.94439 28.7123 2.43865 29.0832 1.99192C29.4625 1.53676 29.9303 1.17431 30.4866 0.904588C31.0429 0.634863 31.6877 0.5 32.421 0.5C33.1544 0.5 33.8034 0.639077 34.3681 0.917231C34.9329 1.19539 35.388 1.5789 35.7336 2.06778C36.0876 2.55666 36.3026 3.12982 36.3784 3.78728H35.683C35.6156 3.21411 35.4259 2.73366 35.1141 2.34593C34.8106 1.94977 34.4271 1.65055 33.9635 1.44825C33.4999 1.23753 32.9858 1.13217 32.421 1.13217C31.6203 1.13217 30.9375 1.32182 30.3728 1.70112C29.8165 2.08042 29.3908 2.58616 29.0958 3.21832C28.8008 3.85049 28.6533 4.55009 28.6533 5.31712C28.6533 6.08416 28.7966 6.79219 29.0832 7.44121C29.3698 8.08181 29.8081 8.59597 30.3981 8.9837C30.9881 9.363 31.7299 9.55265 32.6233 9.55265C33.2555 9.55265 33.8245 9.45151 34.3302 9.24921C34.8359 9.04692 35.2574 8.76877 35.5945 8.41475V6.36653H32.282V5.78493H37.1117V6.36653H36.252V8.61705C35.8727 9.09749 35.3754 9.48101 34.7601 9.76759C34.1532 10.0457 33.4409 10.1848 32.6233 10.1848Z" fill="#FBAF41"/>
<path d="M41.1775 9.96989V6.34124H40.697L37.7132 0.740224H38.4212L41.1016 5.77229H41.9487L44.49 0.740224H45.1728L42.3154 6.34124H41.8476V9.96989H41.1775Z" fill="#FBAF41"/>
</svg>
